M48
; DRILL file {KiCad 9.0.6-9.0.6~ubuntu24.04.1} date 2026-05-19T20:10:27+0200
; FORMAT={-:-/ absolute / metric / decimal}
; #@! TF.CreationDate,2026-05-19T20:10:27+02:00
; #@! TF.GenerationSoftware,Kicad,Pcbnew,9.0.6-9.0.6~ubuntu24.04.1
; #@! TF.FileFunction,Plated,1,2,PTH
FMAT,2
METRIC
; #@! TA.AperFunction,Plated,PTH,ComponentDrill
T1C0.200
; #@! TA.AperFunction,Plated,PTH,ViaDrill
T2C0.300
; #@! TA.AperFunction,Plated,PTH,ComponentDrill
T3C0.500
; #@! TA.AperFunction,Plated,PTH,ComponentDrill
T4C0.700
; #@! TA.AperFunction,Plated,PTH,ComponentDrill
T5C0.800
; #@! TA.AperFunction,Plated,PTH,ComponentDrill
T6C1.000
; #@! TA.AperFunction,Plated,PTH,ComponentDrill
T7C1.100
; #@! TA.AperFunction,Plated,PTH,ComponentDrill
T8C1.300
; #@! TA.AperFunction,Plated,PTH,ComponentDrill
T9C3.200
%
G90
G05
T1
X93.95Y-77.69
X93.95Y-79.09
X94.65Y-76.99
X94.65Y-78.365
X94.65Y-79.79
X95.35Y-77.69
X95.35Y-79.09
X96.05Y-76.99
X96.05Y-78.365
X96.05Y-79.79
X96.75Y-77.69
X96.75Y-79.09
T2
X20.75Y-45.877
X20.75Y-49.002
X22.75Y-46.5
X22.845Y-49.915
X23.125Y-41.44
X23.205Y-92.863
X23.25Y-96.84
X23.75Y-46.5
X24.115Y-49.915
X24.129Y-92.863
X24.75Y-46.5
X24.938Y-99.5
X25.385Y-49.915
X25.75Y-46.5
X26.25Y-41.44
X26.655Y-45.0
X26.75Y-46.5
X28.062Y-99.5
X29.4Y-63.602
X29.5Y-27.69
X30.345Y-99.415
X31.5Y-63.603
X31.5Y-96.538
X34.155Y-99.415
X34.25Y-96.538
X36.25Y-95.377
X36.251Y-98.501
X37.0Y-62.703
X37.123Y-71.75
X37.123Y-73.75
X37.123Y-75.75
X37.123Y-77.75
X37.123Y-79.75
X38.3Y-82.438
X38.3Y-85.562
X38.3Y-87.487
X38.3Y-90.612
X39.123Y-71.75
X39.123Y-73.75
X39.123Y-75.75
X39.123Y-77.75
X39.123Y-79.75
X39.5Y-63.602
X40.345Y-99.415
X40.7Y-82.438
X40.77Y-87.0
X41.123Y-71.75
X41.123Y-73.75
X41.123Y-75.75
X41.123Y-77.75
X41.123Y-79.75
X41.5Y-96.538
X42.938Y-82.7
X44.155Y-99.415
X44.25Y-72.35
X44.25Y-75.75
X44.25Y-96.538
X44.45Y-68.75
X45.5Y-72.35
X45.5Y-75.75
X46.25Y-95.377
X46.25Y-98.502
X47.75Y-82.0
X48.25Y-82.75
X48.275Y-72.35
X48.275Y-74.05
X48.275Y-75.75
X48.75Y-82.0
X49.25Y-82.75
X49.75Y-82.0
X49.936Y-88.734
X50.25Y-82.75
X50.75Y-82.0
X50.772Y-100.0
X51.0Y-62.703
X52.42Y-70.95
X52.42Y-74.05
X52.562Y-68.75
X52.75Y-92.874
X53.5Y-63.602
X53.672Y-100.0
X55.778Y-102.845
X56.236Y-97.939
X56.236Y-91.034
X57.0Y-108.0
X58.0Y-108.0
X58.445Y-100.178
X59.5Y-43.94
X59.75Y-84.27
X60.5Y-43.94
X61.5Y-43.94
X62.46Y-98.739
X62.5Y-39.94
X62.5Y-40.94
X62.5Y-41.94
X62.5Y-42.94
X62.5Y-43.94
X63.5Y-43.94
X64.5Y-32.19
X64.5Y-43.94
X65.0Y-62.703
X65.0Y-98.739
X65.5Y-32.19
X65.5Y-43.94
X65.5Y-92.874
X66.251Y-104.8
X66.3Y-99.5
X66.3Y-108.0
X66.5Y-32.19
X67.5Y-32.19
X67.5Y-33.19
X67.5Y-34.19
X67.5Y-35.19
X67.5Y-36.19
X67.5Y-63.602
X68.5Y-32.19
X69.002Y-98.843
X69.176Y-95.377
X69.5Y-32.19
X70.5Y-32.19
X72.25Y-83.562
X72.25Y-107.75
X72.541Y-98.739
X72.796Y-89.916
X73.34Y-102.641
X73.343Y-99.543
X73.5Y-83.562
X73.762Y-88.71
X74.676Y-89.916
X74.75Y-83.562
X75.311Y-91.073
X76.0Y-83.562
X76.5Y-70.85
X77.25Y-83.562
X79.0Y-62.703
X79.299Y-91.796
X79.502Y-88.697
X81.5Y-63.602
X82.2Y-77.489
X82.4Y-91.796
X82.753Y-88.697
X82.8Y-90.272
X83.75Y-95.377
X84.0Y-67.737
X84.0Y-74.2
X85.845Y-99.415
X86.56Y-88.64
X86.6Y-66.9
X86.6Y-69.5
X86.8Y-83.0
X87.0Y-96.538
X87.783Y-75.0
X87.83Y-88.64
X89.1Y-71.14
X89.1Y-88.64
X89.655Y-99.415
X89.75Y-96.538
X90.25Y-83.0
X90.37Y-71.14
X90.37Y-88.64
X91.399Y-76.689
X91.64Y-71.14
X91.64Y-88.64
X91.75Y-95.377
X91.75Y-98.502
X92.75Y-83.0
X92.91Y-71.14
X92.91Y-88.64
X93.0Y-62.703
X93.0Y-64.25
X94.18Y-71.14
X94.18Y-88.64
X94.285Y-94.463
X95.25Y-83.0
X95.45Y-71.14
X95.5Y-90.1
X95.845Y-99.415
X97.115Y-94.465
X97.25Y-62.703
X97.75Y-83.0
X97.99Y-88.64
X99.26Y-88.64
X99.365Y-96.622
X99.655Y-99.415
X99.939Y-61.402
X100.25Y-84.55
X100.433Y-58.257
X100.5Y-27.69
X100.5Y-76.05
X100.53Y-71.14
X101.244Y-93.675
X101.244Y-100.178
X102.311Y-101.956
X102.464Y-93.675
X102.949Y-61.5
X102.949Y-63.75
X103.062Y-68.69
X103.345Y-54.224
X103.688Y-41.44
X104.25Y-46.5
X104.615Y-49.915
X105.25Y-46.5
X105.885Y-49.915
X106.25Y-46.5
X106.812Y-41.44
X107.25Y-46.5
X109.25Y-45.877
T3
X20.6Y-23.69
X20.6Y-107.69
X21.303Y-21.993
X21.303Y-25.387
X21.303Y-105.993
X21.303Y-109.387
X23.0Y-21.29
X23.0Y-26.09
X23.0Y-105.29
X23.0Y-110.09
X24.697Y-21.993
X24.697Y-25.387
X24.697Y-105.993
X24.697Y-109.387
X25.4Y-23.69
X25.4Y-107.69
X104.6Y-23.69
X104.6Y-107.69
X105.303Y-21.993
X105.303Y-25.387
X105.303Y-105.993
X105.303Y-109.387
X107.0Y-21.29
X107.0Y-26.09
X107.0Y-105.29
X107.0Y-110.09
X108.697Y-21.993
X108.697Y-25.387
X108.697Y-105.993
X108.697Y-109.387
X109.4Y-23.69
X109.4Y-107.69
T4
X33.13Y-27.69
X40.75Y-27.69
X47.19Y-27.69
X54.81Y-27.69
X61.19Y-27.69
X68.81Y-27.69
X75.19Y-27.69
X82.81Y-27.69
X89.19Y-27.69
X96.81Y-27.69
T5
X25.748Y-96.146
X25.75Y-82.5
X25.75Y-92.66
X28.288Y-96.146
X32.25Y-86.398
X32.25Y-89.898
X34.46Y-52.38
X34.46Y-60.0
X37.0Y-52.38
X37.0Y-60.0
X39.54Y-52.38
X39.54Y-60.0
X48.46Y-52.38
X48.46Y-60.0
X51.0Y-52.38
X51.0Y-60.0
X53.54Y-52.38
X53.54Y-60.0
X62.46Y-52.38
X62.46Y-60.0
X65.0Y-52.38
X65.0Y-60.0
X65.5Y-86.398
X65.5Y-89.898
X67.54Y-52.38
X67.54Y-60.0
X69.75Y-70.67
X69.75Y-80.83
X76.46Y-52.38
X76.46Y-60.0
X79.0Y-52.38
X79.0Y-60.0
X81.54Y-52.38
X81.54Y-60.0
X90.46Y-52.38
X90.46Y-60.0
X93.0Y-52.38
X93.0Y-60.0
X95.54Y-52.38
X95.54Y-60.0
T6
X26.5Y-59.75
X26.5Y-67.35
X59.92Y-103.94
X59.92Y-106.48
X62.46Y-103.94
X62.46Y-106.48
X65.0Y-103.94
X65.0Y-106.48
X67.54Y-103.94
X67.54Y-106.48
X70.08Y-103.94
X70.08Y-106.48
T7
X34.46Y-23.69
X37.0Y-23.69
X39.54Y-23.69
X48.46Y-23.69
X51.0Y-23.69
X53.54Y-23.69
X62.46Y-23.69
X65.0Y-23.69
X67.54Y-23.69
X76.46Y-23.69
X79.0Y-23.69
X81.54Y-23.69
X90.46Y-23.69
X93.0Y-23.69
X95.54Y-23.69
T8
X22.25Y-37.822
X27.25Y-37.822
X28.265Y-73.25
X28.265Y-78.25
X29.75Y-106.557
X34.75Y-106.557
X37.5Y-38.072
X39.75Y-106.557
X42.5Y-38.072
X44.75Y-106.557
X47.5Y-38.072
X49.75Y-106.557
X52.5Y-38.072
X54.75Y-106.557
X57.5Y-38.072
X62.5Y-38.072
X67.5Y-38.072
X72.5Y-38.072
X75.25Y-106.557
X77.5Y-38.072
X80.25Y-106.557
X82.5Y-38.072
X85.25Y-106.557
X87.5Y-38.072
X90.25Y-106.557
X92.5Y-38.072
X95.25Y-106.557
X100.25Y-106.557
X102.75Y-37.822
X107.75Y-37.822
T9
X23.0Y-23.69
X23.0Y-107.69
X107.0Y-23.69
X107.0Y-107.69
M30
