%TF.GenerationSoftware,KiCad,Pcbnew,9.0.6-9.0.6~ubuntu24.04.1*%
%TF.CreationDate,2026-05-19T20:08:16+02:00*%
%TF.ProjectId,preheater,70726568-6561-4746-9572-2e6b69636164,0.1*%
%TF.SameCoordinates,Original*%
%TF.FileFunction,Paste,Bot*%
%TF.FilePolarity,Positive*%
%FSLAX46Y46*%
G04 Gerber Fmt 4.6, Leading zero omitted, Abs format (unit mm)*
G04 Created by KiCad (PCBNEW 9.0.6-9.0.6~ubuntu24.04.1) date 2026-05-19 20:08:16*
%MOMM*%
%LPD*%
G01*
G04 APERTURE LIST*
G04 Aperture macros list*
%AMRoundRect*
0 Rectangle with rounded corners*
0 $1 Rounding radius*
0 $2 $3 $4 $5 $6 $7 $8 $9 X,Y pos of 4 corners*
0 Add a 4 corners polygon primitive as box body*
4,1,4,$2,$3,$4,$5,$6,$7,$8,$9,$2,$3,0*
0 Add four circle primitives for the rounded corners*
1,1,$1+$1,$2,$3*
1,1,$1+$1,$4,$5*
1,1,$1+$1,$6,$7*
1,1,$1+$1,$8,$9*
0 Add four rect primitives between the rounded corners*
20,1,$1+$1,$2,$3,$4,$5,0*
20,1,$1+$1,$4,$5,$6,$7,0*
20,1,$1+$1,$6,$7,$8,$9,0*
20,1,$1+$1,$8,$9,$2,$3,0*%
G04 Aperture macros list end*
%ADD10RoundRect,0.250000X0.625000X-0.400000X0.625000X0.400000X-0.625000X0.400000X-0.625000X-0.400000X0*%
%ADD11RoundRect,0.250000X-0.412500X-0.650000X0.412500X-0.650000X0.412500X0.650000X-0.412500X0.650000X0*%
%ADD12RoundRect,0.250000X-0.625000X0.400000X-0.625000X-0.400000X0.625000X-0.400000X0.625000X0.400000X0*%
%ADD13RoundRect,0.150000X0.150000X-0.825000X0.150000X0.825000X-0.150000X0.825000X-0.150000X-0.825000X0*%
%ADD14RoundRect,0.250000X-0.650000X0.412500X-0.650000X-0.412500X0.650000X-0.412500X0.650000X0.412500X0*%
%ADD15RoundRect,0.237500X-0.237500X0.287500X-0.237500X-0.287500X0.237500X-0.287500X0.237500X0.287500X0*%
%ADD16RoundRect,0.250000X-0.850000X-0.500000X0.850000X-0.500000X0.850000X0.500000X-0.850000X0.500000X0*%
%ADD17RoundRect,0.250000X0.412500X0.650000X-0.412500X0.650000X-0.412500X-0.650000X0.412500X-0.650000X0*%
%ADD18RoundRect,0.250000X-0.400000X-0.625000X0.400000X-0.625000X0.400000X0.625000X-0.400000X0.625000X0*%
%ADD19RoundRect,0.237500X0.237500X-0.287500X0.237500X0.287500X-0.237500X0.287500X-0.237500X-0.287500X0*%
%ADD20RoundRect,0.375000X0.625000X0.375000X-0.625000X0.375000X-0.625000X-0.375000X0.625000X-0.375000X0*%
%ADD21RoundRect,0.500000X0.500000X1.400000X-0.500000X1.400000X-0.500000X-1.400000X0.500000X-1.400000X0*%
%ADD22RoundRect,0.250000X0.650000X-0.412500X0.650000X0.412500X-0.650000X0.412500X-0.650000X-0.412500X0*%
%ADD23RoundRect,0.237500X-0.237500X0.250000X-0.237500X-0.250000X0.237500X-0.250000X0.237500X0.250000X0*%
%ADD24RoundRect,0.375000X-0.625000X-0.375000X0.625000X-0.375000X0.625000X0.375000X-0.625000X0.375000X0*%
%ADD25RoundRect,0.500000X-0.500000X-1.400000X0.500000X-1.400000X0.500000X1.400000X-0.500000X1.400000X0*%
%ADD26RoundRect,0.079500X-0.100500X0.079500X-0.100500X-0.079500X0.100500X-0.079500X0.100500X0.079500X0*%
%ADD27RoundRect,0.250000X0.400000X0.625000X-0.400000X0.625000X-0.400000X-0.625000X0.400000X-0.625000X0*%
%ADD28RoundRect,0.079500X0.014849X-0.127279X0.127279X-0.014849X-0.014849X0.127279X-0.127279X0.014849X0*%
G04 APERTURE END LIST*
D10*
%TO.C,R34*%
X90250000Y-84550000D03*
X90250000Y-81450000D03*
%TD*%
D11*
%TO.C,C1*%
X23125000Y-41440000D03*
X26250000Y-41440000D03*
%TD*%
D12*
%TO.C,R24*%
X82016600Y-87172200D03*
X82016600Y-90272200D03*
%TD*%
%TO.C,R32*%
X98000000Y-72950000D03*
X98000000Y-76050000D03*
%TD*%
D10*
%TO.C,R6*%
X45500000Y-52490000D03*
X45500000Y-49390000D03*
%TD*%
%TO.C,R33*%
X87750000Y-84550000D03*
X87750000Y-81450000D03*
%TD*%
D11*
%TO.C,C5*%
X86187500Y-102940000D03*
X89312500Y-102940000D03*
%TD*%
D10*
%TO.C,R23*%
X79502000Y-90272200D03*
X79502000Y-87172200D03*
%TD*%
D13*
%TO.C,U9*%
X34155000Y-99415000D03*
X32885000Y-99415000D03*
X31615000Y-99415000D03*
X30345000Y-99415000D03*
X30345000Y-94465000D03*
X31615000Y-94465000D03*
X32885000Y-94465000D03*
X34155000Y-94465000D03*
%TD*%
D14*
%TO.C,C29*%
X72250000Y-80437500D03*
X72250000Y-83562500D03*
%TD*%
D15*
%TO.C,L6*%
X28890000Y-102565000D03*
X28890000Y-104315000D03*
%TD*%
D16*
%TO.C,D7*%
X50772400Y-99898200D03*
X53672400Y-99898200D03*
%TD*%
D13*
%TO.C,U10*%
X44155000Y-99415000D03*
X42885000Y-99415000D03*
X41615000Y-99415000D03*
X40345000Y-99415000D03*
X40345000Y-94465000D03*
X41615000Y-94465000D03*
X42885000Y-94465000D03*
X44155000Y-94465000D03*
%TD*%
D15*
%TO.C,L8*%
X38900000Y-102565000D03*
X38900000Y-104315000D03*
%TD*%
D17*
%TO.C,C24*%
X52562500Y-68750000D03*
X49437500Y-68750000D03*
%TD*%
D18*
%TO.C,R27*%
X44450000Y-68750000D03*
X47550000Y-68750000D03*
%TD*%
D13*
%TO.C,U12*%
X99655000Y-99415000D03*
X98385000Y-99415000D03*
X97115000Y-99415000D03*
X95845000Y-99415000D03*
X95845000Y-94465000D03*
X97115000Y-94465000D03*
X98385000Y-94465000D03*
X99655000Y-94465000D03*
%TD*%
D11*
%TO.C,C2*%
X103687500Y-41440000D03*
X106812500Y-41440000D03*
%TD*%
D19*
%TO.C,L4*%
X101890000Y-41815000D03*
X101890000Y-40065000D03*
%TD*%
D10*
%TO.C,R13*%
X73500000Y-52490000D03*
X73500000Y-49390000D03*
%TD*%
D20*
%TO.C,Q6*%
X56236000Y-86434300D03*
X56236000Y-88734300D03*
D21*
X49936000Y-88734300D03*
D20*
X56236000Y-91034300D03*
%TD*%
D22*
%TO.C,C19*%
X35900000Y-90612500D03*
X35900000Y-87487500D03*
%TD*%
D10*
%TO.C,R36*%
X95250000Y-84550000D03*
X95250000Y-81450000D03*
%TD*%
D14*
%TO.C,C11*%
X91750000Y-95377500D03*
X91750000Y-98502500D03*
%TD*%
%TO.C,C9*%
X36250000Y-95377500D03*
X36250000Y-98502500D03*
%TD*%
D17*
%TO.C,C27*%
X28062500Y-99500000D03*
X24937500Y-99500000D03*
%TD*%
D10*
%TO.C,R2*%
X34250000Y-49740000D03*
X34250000Y-46640000D03*
%TD*%
D22*
%TO.C,C16*%
X38300000Y-90612500D03*
X38300000Y-87487500D03*
%TD*%
D11*
%TO.C,C3*%
X30687500Y-102940000D03*
X33812500Y-102940000D03*
%TD*%
D15*
%TO.C,L12*%
X94390000Y-102565000D03*
X94390000Y-104315000D03*
%TD*%
D10*
%TO.C,R25*%
X58877200Y-90221400D03*
X58877200Y-87121400D03*
%TD*%
D11*
%TO.C,C15*%
X50634500Y-102946200D03*
X53759500Y-102946200D03*
%TD*%
D23*
%TO.C,L7*%
X35610000Y-102527500D03*
X35610000Y-104352500D03*
%TD*%
D14*
%TO.C,C18*%
X35900000Y-82437500D03*
X35900000Y-85562500D03*
%TD*%
D12*
%TO.C,R26*%
X61391800Y-87120800D03*
X61391800Y-90220800D03*
%TD*%
D11*
%TO.C,C14*%
X76161500Y-102946200D03*
X79286500Y-102946200D03*
%TD*%
D12*
%TO.C,R38*%
X100250000Y-81450000D03*
X100250000Y-84550000D03*
%TD*%
D24*
%TO.C,U14*%
X40850000Y-89300000D03*
X40850000Y-87000000D03*
D25*
X47150000Y-87000000D03*
D24*
X40850000Y-84700000D03*
%TD*%
D26*
%TO.C,NT1*%
X65000000Y-107355000D03*
X65000000Y-108045000D03*
%TD*%
D14*
%TO.C,C30*%
X74750000Y-80437500D03*
X74750000Y-83562500D03*
%TD*%
%TO.C,C35*%
X84000000Y-67737500D03*
X84000000Y-70862500D03*
%TD*%
D10*
%TO.C,R18*%
X87500000Y-52490000D03*
X87500000Y-49390000D03*
%TD*%
D15*
%TO.C,L10*%
X84390000Y-102565000D03*
X84390000Y-104315000D03*
%TD*%
%TO.C,L13*%
X101110000Y-102565000D03*
X101110000Y-104315000D03*
%TD*%
D10*
%TO.C,R31*%
X97750000Y-84550000D03*
X97750000Y-81450000D03*
%TD*%
D14*
%TO.C,C34*%
X81500000Y-67737500D03*
X81500000Y-70862500D03*
%TD*%
%TO.C,C10*%
X46250000Y-95377500D03*
X46250000Y-98502500D03*
%TD*%
D20*
%TO.C,Q7*%
X76860800Y-86410100D03*
X76860800Y-88710100D03*
D21*
X70560800Y-88710100D03*
D20*
X76860800Y-91010100D03*
%TD*%
D15*
%TO.C,L9*%
X45590000Y-102565000D03*
X45590000Y-104315000D03*
%TD*%
D12*
%TO.C,R21*%
X100500000Y-72950000D03*
X100500000Y-76050000D03*
%TD*%
D19*
%TO.C,L2*%
X21330000Y-41815000D03*
X21330000Y-40065000D03*
%TD*%
D14*
%TO.C,C31*%
X77250000Y-80437500D03*
X77250000Y-83562500D03*
%TD*%
%TO.C,C33*%
X38300000Y-82437500D03*
X38300000Y-85562500D03*
%TD*%
D19*
%TO.C,L3*%
X28040000Y-41816000D03*
X28040000Y-40066000D03*
%TD*%
D27*
%TO.C,R37*%
X33750000Y-82656435D03*
X30650000Y-82656435D03*
%TD*%
D10*
%TO.C,R35*%
X92750000Y-84550000D03*
X92750000Y-81450000D03*
%TD*%
D19*
%TO.C,L5*%
X108610000Y-41815000D03*
X108610000Y-40065000D03*
%TD*%
D13*
%TO.C,U11*%
X89655000Y-99415000D03*
X88385000Y-99415000D03*
X87115000Y-99415000D03*
X85845000Y-99415000D03*
X85845000Y-94465000D03*
X87115000Y-94465000D03*
X88385000Y-94465000D03*
X89655000Y-94465000D03*
%TD*%
D10*
%TO.C,R11*%
X59500000Y-52490000D03*
X59500000Y-49390000D03*
%TD*%
D11*
%TO.C,C6*%
X96187500Y-102940000D03*
X99312500Y-102940000D03*
%TD*%
D10*
%TO.C,R41*%
X79000000Y-70850000D03*
X79000000Y-67750000D03*
%TD*%
D11*
%TO.C,C4*%
X40687500Y-102940000D03*
X43812500Y-102940000D03*
%TD*%
D14*
%TO.C,C12*%
X101750000Y-95377500D03*
X101750000Y-98502500D03*
%TD*%
D22*
%TO.C,C23*%
X52420000Y-74062500D03*
X52420000Y-70937500D03*
%TD*%
D16*
%TO.C,D6*%
X76274000Y-99898200D03*
X79174000Y-99898200D03*
%TD*%
D12*
%TO.C,R22*%
X85250000Y-81450000D03*
X85250000Y-84550000D03*
%TD*%
D15*
%TO.C,L11*%
X91110000Y-102565000D03*
X91110000Y-104315000D03*
%TD*%
D12*
%TO.C,R40*%
X76500000Y-67750000D03*
X76500000Y-70850000D03*
%TD*%
D28*
%TO.C,NT2*%
X65656048Y-105843952D03*
X66143952Y-105356048D03*
%TD*%
M02*
