%TF.GenerationSoftware,KiCad,Pcbnew,9.0.6-9.0.6~ubuntu24.04.1*%
%TF.CreationDate,2026-05-19T20:08:16+02:00*%
%TF.ProjectId,preheater,70726568-6561-4746-9572-2e6b69636164,0.1*%
%TF.SameCoordinates,Original*%
%TF.FileFunction,Soldermask,Bot*%
%TF.FilePolarity,Negative*%
%FSLAX46Y46*%
G04 Gerber Fmt 4.6, Leading zero omitted, Abs format (unit mm)*
G04 Created by KiCad (PCBNEW 9.0.6-9.0.6~ubuntu24.04.1) date 2026-05-19 20:08:16*
%MOMM*%
%LPD*%
G01*
G04 APERTURE LIST*
G04 Aperture macros list*
%AMRoundRect*
0 Rectangle with rounded corners*
0 $1 Rounding radius*
0 $2 $3 $4 $5 $6 $7 $8 $9 X,Y pos of 4 corners*
0 Add a 4 corners polygon primitive as box body*
4,1,4,$2,$3,$4,$5,$6,$7,$8,$9,$2,$3,0*
0 Add four circle primitives for the rounded corners*
1,1,$1+$1,$2,$3*
1,1,$1+$1,$4,$5*
1,1,$1+$1,$6,$7*
1,1,$1+$1,$8,$9*
0 Add four rect primitives between the rounded corners*
20,1,$1+$1,$2,$3,$4,$5,0*
20,1,$1+$1,$4,$5,$6,$7,0*
20,1,$1+$1,$6,$7,$8,$9,0*
20,1,$1+$1,$8,$9,$2,$3,0*%
G04 Aperture macros list end*
%ADD10C,1.600000*%
%ADD11RoundRect,0.249999X1.250001X1.250001X-1.250001X1.250001X-1.250001X-1.250001X1.250001X-1.250001X0*%
%ADD12C,3.000000*%
%ADD13C,1.400000*%
%ADD14R,1.700000X1.700000*%
%ADD15C,1.700000*%
%ADD16RoundRect,0.250000X-0.550000X0.550000X-0.550000X-0.550000X0.550000X-0.550000X0.550000X0.550000X0*%
%ADD17R,1.905000X2.000000*%
%ADD18O,1.905000X2.000000*%
%ADD19RoundRect,0.250000X0.550000X-0.950000X0.550000X0.950000X-0.550000X0.950000X-0.550000X-0.950000X0*%
%ADD20O,1.600000X2.400000*%
%ADD21C,0.800000*%
%ADD22C,6.400000*%
%ADD23R,2.000000X2.000000*%
%ADD24C,2.000000*%
%ADD25RoundRect,0.249999X-1.250001X1.250001X-1.250001X-1.250001X1.250001X-1.250001X1.250001X1.250001X0*%
%ADD26RoundRect,0.250000X0.625000X-0.400000X0.625000X0.400000X-0.625000X0.400000X-0.625000X-0.400000X0*%
%ADD27RoundRect,0.250000X-0.412500X-0.650000X0.412500X-0.650000X0.412500X0.650000X-0.412500X0.650000X0*%
%ADD28RoundRect,0.250000X-0.625000X0.400000X-0.625000X-0.400000X0.625000X-0.400000X0.625000X0.400000X0*%
%ADD29RoundRect,0.150000X0.150000X-0.825000X0.150000X0.825000X-0.150000X0.825000X-0.150000X-0.825000X0*%
%ADD30RoundRect,0.250000X-0.650000X0.412500X-0.650000X-0.412500X0.650000X-0.412500X0.650000X0.412500X0*%
%ADD31RoundRect,0.237500X-0.237500X0.287500X-0.237500X-0.287500X0.237500X-0.287500X0.237500X0.287500X0*%
%ADD32RoundRect,0.250000X-0.850000X-0.500000X0.850000X-0.500000X0.850000X0.500000X-0.850000X0.500000X0*%
%ADD33RoundRect,0.250000X0.412500X0.650000X-0.412500X0.650000X-0.412500X-0.650000X0.412500X-0.650000X0*%
%ADD34RoundRect,0.250000X-0.400000X-0.625000X0.400000X-0.625000X0.400000X0.625000X-0.400000X0.625000X0*%
%ADD35RoundRect,0.237500X0.237500X-0.287500X0.237500X0.287500X-0.237500X0.287500X-0.237500X-0.287500X0*%
%ADD36RoundRect,0.375000X0.625000X0.375000X-0.625000X0.375000X-0.625000X-0.375000X0.625000X-0.375000X0*%
%ADD37RoundRect,0.500000X0.500000X1.400000X-0.500000X1.400000X-0.500000X-1.400000X0.500000X-1.400000X0*%
%ADD38RoundRect,0.250000X0.650000X-0.412500X0.650000X0.412500X-0.650000X0.412500X-0.650000X-0.412500X0*%
%ADD39RoundRect,0.237500X-0.237500X0.250000X-0.237500X-0.250000X0.237500X-0.250000X0.237500X0.250000X0*%
%ADD40RoundRect,0.375000X-0.625000X-0.375000X0.625000X-0.375000X0.625000X0.375000X-0.625000X0.375000X0*%
%ADD41RoundRect,0.500000X-0.500000X-1.400000X0.500000X-1.400000X0.500000X1.400000X-0.500000X1.400000X0*%
%ADD42RoundRect,0.100000X-0.100000X0.130000X-0.100000X-0.130000X0.100000X-0.130000X0.100000X0.130000X0*%
%ADD43RoundRect,0.250000X0.400000X0.625000X-0.400000X0.625000X-0.400000X-0.625000X0.400000X-0.625000X0*%
%ADD44RoundRect,0.100000X-0.021213X-0.162635X0.162635X0.021213X0.021213X0.162635X-0.162635X-0.021213X0*%
G04 APERTURE END LIST*
D10*
%TO.C,FB1*%
X69750000Y-80830000D03*
X69750000Y-70670000D03*
%TD*%
D11*
%TO.C,J5*%
X92500000Y-38072500D03*
D12*
X87500000Y-38072500D03*
X82500000Y-38072500D03*
X77500000Y-38072500D03*
X72500000Y-38072500D03*
X67500000Y-38072500D03*
X62500000Y-38072500D03*
X57500000Y-38072500D03*
X52500000Y-38072500D03*
X47500000Y-38072500D03*
X42500000Y-38072500D03*
X37500000Y-38072500D03*
%TD*%
%TO.C,J3*%
X29750000Y-106557500D03*
X34750000Y-106557500D03*
X39750000Y-106557500D03*
X44750000Y-106557500D03*
X49750000Y-106557500D03*
X54750000Y-106557500D03*
%TD*%
D13*
%TO.C,R19*%
X89190000Y-27690000D03*
X96810000Y-27690000D03*
%TD*%
D14*
%TO.C,J6*%
X70080000Y-103940000D03*
D15*
X70080000Y-106480000D03*
X67540000Y-103940000D03*
X67540000Y-106480000D03*
X65000000Y-103940000D03*
X65000000Y-106480000D03*
X62460000Y-103940000D03*
X62460000Y-106480000D03*
X59920000Y-103940000D03*
X59920000Y-106480000D03*
%TD*%
D13*
%TO.C,R12*%
X61190000Y-27690000D03*
X68810000Y-27690000D03*
%TD*%
D16*
%TO.C,C22*%
X65500000Y-86397621D03*
D10*
X65500000Y-89897621D03*
%TD*%
D17*
%TO.C,Q2*%
X48460000Y-23690000D03*
D18*
X51000000Y-23690000D03*
X53540000Y-23690000D03*
%TD*%
D13*
%TO.C,R14*%
X75190000Y-27690000D03*
X82810000Y-27690000D03*
%TD*%
D17*
%TO.C,Q5*%
X90460000Y-23690000D03*
D18*
X93000000Y-23690000D03*
X95540000Y-23690000D03*
%TD*%
D19*
%TO.C,U3*%
X62460000Y-60000000D03*
D20*
X65000000Y-60000000D03*
X67540000Y-60000000D03*
X67540000Y-52380000D03*
X65000000Y-52380000D03*
X62460000Y-52380000D03*
%TD*%
D16*
%TO.C,C20*%
X32250000Y-86397621D03*
D10*
X32250000Y-89897621D03*
%TD*%
D19*
%TO.C,U5*%
X90460000Y-60000000D03*
D20*
X93000000Y-60000000D03*
X95540000Y-60000000D03*
X95540000Y-52380000D03*
X93000000Y-52380000D03*
X90460000Y-52380000D03*
%TD*%
D12*
%TO.C,J2*%
X107750000Y-37822500D03*
X102750000Y-37822500D03*
%TD*%
D21*
%TO.C,H2*%
X104600000Y-23690000D03*
X105302944Y-21992944D03*
X105302944Y-25387056D03*
X107000000Y-21290000D03*
D22*
X107000000Y-23690000D03*
D21*
X107000000Y-26090000D03*
X108697056Y-21992944D03*
X108697056Y-25387056D03*
X109400000Y-23690000D03*
%TD*%
%TO.C,H3*%
X104600000Y-107690000D03*
X105302944Y-105992944D03*
X105302944Y-109387056D03*
X107000000Y-105290000D03*
D22*
X107000000Y-107690000D03*
D21*
X107000000Y-110090000D03*
X108697056Y-105992944D03*
X108697056Y-109387056D03*
X109400000Y-107690000D03*
%TD*%
D23*
%TO.C,BZ1*%
X26500000Y-67350000D03*
D24*
X26500000Y-59750000D03*
%TD*%
D21*
%TO.C,H1*%
X20600000Y-23690000D03*
X21302944Y-21992944D03*
X21302944Y-25387056D03*
X23000000Y-21290000D03*
D22*
X23000000Y-23690000D03*
D21*
X23000000Y-26090000D03*
X24697056Y-21992944D03*
X24697056Y-25387056D03*
X25400000Y-23690000D03*
%TD*%
D12*
%TO.C,J1*%
X27250000Y-37822500D03*
X22250000Y-37822500D03*
%TD*%
D21*
%TO.C,H4*%
X20600000Y-107690000D03*
X21302944Y-105992944D03*
X21302944Y-109387056D03*
X23000000Y-105290000D03*
D22*
X23000000Y-107690000D03*
D21*
X23000000Y-110090000D03*
X24697056Y-105992944D03*
X24697056Y-109387056D03*
X25400000Y-107690000D03*
%TD*%
D17*
%TO.C,Q4*%
X76460000Y-23690000D03*
D18*
X79000000Y-23690000D03*
X81540000Y-23690000D03*
%TD*%
D17*
%TO.C,Q3*%
X62460000Y-23690000D03*
D18*
X65000000Y-23690000D03*
X67540000Y-23690000D03*
%TD*%
D13*
%TO.C,R7*%
X47190000Y-27690000D03*
X54810000Y-27690000D03*
%TD*%
D17*
%TO.C,Q1*%
X34460000Y-23690000D03*
D18*
X37000000Y-23690000D03*
X39540000Y-23690000D03*
%TD*%
D10*
%TO.C,FB2*%
X25750000Y-82500000D03*
X25750000Y-92660000D03*
%TD*%
D19*
%TO.C,U4*%
X76460000Y-60000000D03*
D20*
X79000000Y-60000000D03*
X81540000Y-60000000D03*
X81540000Y-52380000D03*
X79000000Y-52380000D03*
X76460000Y-52380000D03*
%TD*%
D13*
%TO.C,R3*%
X33130000Y-27690000D03*
X40750000Y-27690000D03*
%TD*%
D12*
%TO.C,J4*%
X75250000Y-106557500D03*
X80250000Y-106557500D03*
X85250000Y-106557500D03*
X90250000Y-106557500D03*
X95250000Y-106557500D03*
X100250000Y-106557500D03*
%TD*%
D19*
%TO.C,U2*%
X48460000Y-60000000D03*
D20*
X51000000Y-60000000D03*
X53540000Y-60000000D03*
X53540000Y-52380000D03*
X51000000Y-52380000D03*
X48460000Y-52380000D03*
%TD*%
D19*
%TO.C,U1*%
X34460000Y-60000000D03*
D20*
X37000000Y-60000000D03*
X39540000Y-60000000D03*
X39540000Y-52380000D03*
X37000000Y-52380000D03*
X34460000Y-52380000D03*
%TD*%
D10*
%TO.C,FB3*%
X25748367Y-96145859D03*
X28288367Y-96145859D03*
%TD*%
D25*
%TO.C,J7*%
X28265000Y-73250000D03*
D12*
X28265000Y-78250000D03*
%TD*%
D26*
%TO.C,R34*%
X90250000Y-84550000D03*
X90250000Y-81450000D03*
%TD*%
D27*
%TO.C,C1*%
X23125000Y-41440000D03*
X26250000Y-41440000D03*
%TD*%
D28*
%TO.C,R24*%
X82016600Y-87172200D03*
X82016600Y-90272200D03*
%TD*%
%TO.C,R32*%
X98000000Y-72950000D03*
X98000000Y-76050000D03*
%TD*%
D26*
%TO.C,R6*%
X45500000Y-52490000D03*
X45500000Y-49390000D03*
%TD*%
%TO.C,R33*%
X87750000Y-84550000D03*
X87750000Y-81450000D03*
%TD*%
D27*
%TO.C,C5*%
X86187500Y-102940000D03*
X89312500Y-102940000D03*
%TD*%
D26*
%TO.C,R23*%
X79502000Y-90272200D03*
X79502000Y-87172200D03*
%TD*%
D29*
%TO.C,U9*%
X34155000Y-99415000D03*
X32885000Y-99415000D03*
X31615000Y-99415000D03*
X30345000Y-99415000D03*
X30345000Y-94465000D03*
X31615000Y-94465000D03*
X32885000Y-94465000D03*
X34155000Y-94465000D03*
%TD*%
D30*
%TO.C,C29*%
X72250000Y-80437500D03*
X72250000Y-83562500D03*
%TD*%
D31*
%TO.C,L6*%
X28890000Y-102565000D03*
X28890000Y-104315000D03*
%TD*%
D32*
%TO.C,D7*%
X50772400Y-99898200D03*
X53672400Y-99898200D03*
%TD*%
D29*
%TO.C,U10*%
X44155000Y-99415000D03*
X42885000Y-99415000D03*
X41615000Y-99415000D03*
X40345000Y-99415000D03*
X40345000Y-94465000D03*
X41615000Y-94465000D03*
X42885000Y-94465000D03*
X44155000Y-94465000D03*
%TD*%
D31*
%TO.C,L8*%
X38900000Y-102565000D03*
X38900000Y-104315000D03*
%TD*%
D33*
%TO.C,C24*%
X52562500Y-68750000D03*
X49437500Y-68750000D03*
%TD*%
D34*
%TO.C,R27*%
X44450000Y-68750000D03*
X47550000Y-68750000D03*
%TD*%
D29*
%TO.C,U12*%
X99655000Y-99415000D03*
X98385000Y-99415000D03*
X97115000Y-99415000D03*
X95845000Y-99415000D03*
X95845000Y-94465000D03*
X97115000Y-94465000D03*
X98385000Y-94465000D03*
X99655000Y-94465000D03*
%TD*%
D27*
%TO.C,C2*%
X103687500Y-41440000D03*
X106812500Y-41440000D03*
%TD*%
D35*
%TO.C,L4*%
X101890000Y-41815000D03*
X101890000Y-40065000D03*
%TD*%
D26*
%TO.C,R13*%
X73500000Y-52490000D03*
X73500000Y-49390000D03*
%TD*%
D36*
%TO.C,Q6*%
X56236000Y-86434300D03*
X56236000Y-88734300D03*
D37*
X49936000Y-88734300D03*
D36*
X56236000Y-91034300D03*
%TD*%
D38*
%TO.C,C19*%
X35900000Y-90612500D03*
X35900000Y-87487500D03*
%TD*%
D26*
%TO.C,R36*%
X95250000Y-84550000D03*
X95250000Y-81450000D03*
%TD*%
D30*
%TO.C,C11*%
X91750000Y-95377500D03*
X91750000Y-98502500D03*
%TD*%
%TO.C,C9*%
X36250000Y-95377500D03*
X36250000Y-98502500D03*
%TD*%
D33*
%TO.C,C27*%
X28062500Y-99500000D03*
X24937500Y-99500000D03*
%TD*%
D26*
%TO.C,R2*%
X34250000Y-49740000D03*
X34250000Y-46640000D03*
%TD*%
D38*
%TO.C,C16*%
X38300000Y-90612500D03*
X38300000Y-87487500D03*
%TD*%
D27*
%TO.C,C3*%
X30687500Y-102940000D03*
X33812500Y-102940000D03*
%TD*%
D31*
%TO.C,L12*%
X94390000Y-102565000D03*
X94390000Y-104315000D03*
%TD*%
D26*
%TO.C,R25*%
X58877200Y-90221400D03*
X58877200Y-87121400D03*
%TD*%
D27*
%TO.C,C15*%
X50634500Y-102946200D03*
X53759500Y-102946200D03*
%TD*%
D39*
%TO.C,L7*%
X35610000Y-102527500D03*
X35610000Y-104352500D03*
%TD*%
D30*
%TO.C,C18*%
X35900000Y-82437500D03*
X35900000Y-85562500D03*
%TD*%
D28*
%TO.C,R26*%
X61391800Y-87120800D03*
X61391800Y-90220800D03*
%TD*%
D27*
%TO.C,C14*%
X76161500Y-102946200D03*
X79286500Y-102946200D03*
%TD*%
D28*
%TO.C,R38*%
X100250000Y-81450000D03*
X100250000Y-84550000D03*
%TD*%
D40*
%TO.C,U14*%
X40850000Y-89300000D03*
X40850000Y-87000000D03*
D41*
X47150000Y-87000000D03*
D40*
X40850000Y-84700000D03*
%TD*%
D42*
%TO.C,NT1*%
X65000000Y-107380000D03*
X65000000Y-108020000D03*
%TD*%
D30*
%TO.C,C30*%
X74750000Y-80437500D03*
X74750000Y-83562500D03*
%TD*%
%TO.C,C35*%
X84000000Y-67737500D03*
X84000000Y-70862500D03*
%TD*%
D26*
%TO.C,R18*%
X87500000Y-52490000D03*
X87500000Y-49390000D03*
%TD*%
D31*
%TO.C,L10*%
X84390000Y-102565000D03*
X84390000Y-104315000D03*
%TD*%
%TO.C,L13*%
X101110000Y-102565000D03*
X101110000Y-104315000D03*
%TD*%
D26*
%TO.C,R31*%
X97750000Y-84550000D03*
X97750000Y-81450000D03*
%TD*%
D30*
%TO.C,C34*%
X81500000Y-67737500D03*
X81500000Y-70862500D03*
%TD*%
%TO.C,C10*%
X46250000Y-95377500D03*
X46250000Y-98502500D03*
%TD*%
D36*
%TO.C,Q7*%
X76860800Y-86410100D03*
X76860800Y-88710100D03*
D37*
X70560800Y-88710100D03*
D36*
X76860800Y-91010100D03*
%TD*%
D31*
%TO.C,L9*%
X45590000Y-102565000D03*
X45590000Y-104315000D03*
%TD*%
D28*
%TO.C,R21*%
X100500000Y-72950000D03*
X100500000Y-76050000D03*
%TD*%
D35*
%TO.C,L2*%
X21330000Y-41815000D03*
X21330000Y-40065000D03*
%TD*%
D30*
%TO.C,C31*%
X77250000Y-80437500D03*
X77250000Y-83562500D03*
%TD*%
%TO.C,C33*%
X38300000Y-82437500D03*
X38300000Y-85562500D03*
%TD*%
D35*
%TO.C,L3*%
X28040000Y-41816000D03*
X28040000Y-40066000D03*
%TD*%
D43*
%TO.C,R37*%
X33750000Y-82656435D03*
X30650000Y-82656435D03*
%TD*%
D26*
%TO.C,R35*%
X92750000Y-84550000D03*
X92750000Y-81450000D03*
%TD*%
D35*
%TO.C,L5*%
X108610000Y-41815000D03*
X108610000Y-40065000D03*
%TD*%
D29*
%TO.C,U11*%
X89655000Y-99415000D03*
X88385000Y-99415000D03*
X87115000Y-99415000D03*
X85845000Y-99415000D03*
X85845000Y-94465000D03*
X87115000Y-94465000D03*
X88385000Y-94465000D03*
X89655000Y-94465000D03*
%TD*%
D26*
%TO.C,R11*%
X59500000Y-52490000D03*
X59500000Y-49390000D03*
%TD*%
D27*
%TO.C,C6*%
X96187500Y-102940000D03*
X99312500Y-102940000D03*
%TD*%
D26*
%TO.C,R41*%
X79000000Y-70850000D03*
X79000000Y-67750000D03*
%TD*%
D27*
%TO.C,C4*%
X40687500Y-102940000D03*
X43812500Y-102940000D03*
%TD*%
D30*
%TO.C,C12*%
X101750000Y-95377500D03*
X101750000Y-98502500D03*
%TD*%
D38*
%TO.C,C23*%
X52420000Y-74062500D03*
X52420000Y-70937500D03*
%TD*%
D32*
%TO.C,D6*%
X76274000Y-99898200D03*
X79174000Y-99898200D03*
%TD*%
D28*
%TO.C,R22*%
X85250000Y-81450000D03*
X85250000Y-84550000D03*
%TD*%
D31*
%TO.C,L11*%
X91110000Y-102565000D03*
X91110000Y-104315000D03*
%TD*%
D28*
%TO.C,R40*%
X76500000Y-67750000D03*
X76500000Y-70850000D03*
%TD*%
D44*
%TO.C,NT2*%
X65673726Y-105826274D03*
X66126274Y-105373726D03*
%TD*%
G36*
X63343039Y-42809685D02*
G01*
X63388794Y-42862489D01*
X63400000Y-42914000D01*
X63400000Y-43040000D01*
X93223352Y-43040000D01*
X93290391Y-43059685D01*
X93336146Y-43112489D01*
X93347352Y-43164000D01*
X93347352Y-44716000D01*
X93327667Y-44783039D01*
X93274863Y-44828794D01*
X93223352Y-44840000D01*
X41541352Y-44840000D01*
X41474313Y-44820315D01*
X41428558Y-44767511D01*
X41417352Y-44716000D01*
X41417352Y-43164000D01*
X41437037Y-43096961D01*
X41489841Y-43051206D01*
X41541352Y-43040000D01*
X61600000Y-43040000D01*
X61600000Y-42914000D01*
X61619685Y-42846961D01*
X61672489Y-42801206D01*
X61724000Y-42790000D01*
X63276000Y-42790000D01*
X63343039Y-42809685D01*
G37*
G36*
X68414342Y-32502383D02*
G01*
X68473842Y-32514218D01*
X68518541Y-32532732D01*
X68558630Y-32559518D01*
X68592843Y-32593731D01*
X68619629Y-32633820D01*
X68638143Y-32678517D01*
X68649979Y-32738017D01*
X68652362Y-32762210D01*
X68652362Y-32976000D01*
X68632677Y-33043039D01*
X68579873Y-33088794D01*
X68528362Y-33100000D01*
X68402362Y-33100000D01*
X68402362Y-37076000D01*
X68382677Y-37143039D01*
X68329873Y-37188794D01*
X68278362Y-37200000D01*
X66726362Y-37200000D01*
X66659323Y-37180315D01*
X66613568Y-37127511D01*
X66602362Y-37076000D01*
X66602362Y-33100000D01*
X66476362Y-33100000D01*
X66409323Y-33080315D01*
X66363568Y-33027511D01*
X66352362Y-32976000D01*
X66352362Y-32762210D01*
X66354745Y-32738019D01*
X66366580Y-32678519D01*
X66385094Y-32633820D01*
X66411880Y-32593731D01*
X66446093Y-32559518D01*
X66486182Y-32532732D01*
X66530882Y-32514217D01*
X66590383Y-32502382D01*
X66614573Y-32500000D01*
X68390151Y-32500000D01*
X68414342Y-32502383D01*
G37*
G36*
X93795960Y-31319685D02*
G01*
X93841715Y-31372489D01*
X93852921Y-31424000D01*
X93852921Y-32976000D01*
X93833236Y-33043039D01*
X93780432Y-33088794D01*
X93728921Y-33100000D01*
X68402362Y-33100000D01*
X68402362Y-33226000D01*
X68382677Y-33293039D01*
X68329873Y-33338794D01*
X68278362Y-33350000D01*
X66726362Y-33350000D01*
X66659323Y-33330315D01*
X66613568Y-33277511D01*
X66602362Y-33226000D01*
X66602362Y-33100000D01*
X36276921Y-33100000D01*
X36209882Y-33080315D01*
X36164127Y-33027511D01*
X36152921Y-32976000D01*
X36152921Y-31424000D01*
X36172606Y-31356961D01*
X36225410Y-31311206D01*
X36276921Y-31300000D01*
X93728921Y-31300000D01*
X93795960Y-31319685D01*
G37*
G36*
X63343039Y-38999685D02*
G01*
X63388794Y-39052489D01*
X63400000Y-39104000D01*
X63400000Y-43040000D01*
X63526000Y-43040000D01*
X63593039Y-43059685D01*
X63638794Y-43112489D01*
X63650000Y-43164000D01*
X63650000Y-43317789D01*
X63647617Y-43341982D01*
X63635781Y-43401482D01*
X63617267Y-43446179D01*
X63590481Y-43486268D01*
X63556268Y-43520481D01*
X63516179Y-43547267D01*
X63471482Y-43565781D01*
X63411982Y-43577617D01*
X63387789Y-43580000D01*
X61612211Y-43580000D01*
X61588019Y-43577617D01*
X61528518Y-43565781D01*
X61483820Y-43547267D01*
X61443731Y-43520481D01*
X61409518Y-43486268D01*
X61382732Y-43446179D01*
X61364218Y-43401480D01*
X61352383Y-43341980D01*
X61350000Y-43317789D01*
X61350000Y-43164000D01*
X61369685Y-43096961D01*
X61422489Y-43051206D01*
X61474000Y-43040000D01*
X61600000Y-43040000D01*
X61600000Y-39104000D01*
X61619685Y-39036961D01*
X61672489Y-38991206D01*
X61724000Y-38980000D01*
X63276000Y-38980000D01*
X63343039Y-38999685D01*
G37*
M02*
