%TF.GenerationSoftware,KiCad,Pcbnew,9.0.6-9.0.6~ubuntu24.04.1*%
%TF.CreationDate,2026-05-19T20:08:16+02:00*%
%TF.ProjectId,preheater,70726568-6561-4746-9572-2e6b69636164,0.1*%
%TF.SameCoordinates,Original*%
%TF.FileFunction,Soldermask,Top*%
%TF.FilePolarity,Negative*%
%FSLAX46Y46*%
G04 Gerber Fmt 4.6, Leading zero omitted, Abs format (unit mm)*
G04 Created by KiCad (PCBNEW 9.0.6-9.0.6~ubuntu24.04.1) date 2026-05-19 20:08:16*
%MOMM*%
%LPD*%
G01*
G04 APERTURE LIST*
G04 Aperture macros list*
%AMRoundRect*
0 Rectangle with rounded corners*
0 $1 Rounding radius*
0 $2 $3 $4 $5 $6 $7 $8 $9 X,Y pos of 4 corners*
0 Add a 4 corners polygon primitive as box body*
4,1,4,$2,$3,$4,$5,$6,$7,$8,$9,$2,$3,0*
0 Add four circle primitives for the rounded corners*
1,1,$1+$1,$2,$3*
1,1,$1+$1,$4,$5*
1,1,$1+$1,$6,$7*
1,1,$1+$1,$8,$9*
0 Add four rect primitives between the rounded corners*
20,1,$1+$1,$2,$3,$4,$5,0*
20,1,$1+$1,$4,$5,$6,$7,0*
20,1,$1+$1,$6,$7,$8,$9,0*
20,1,$1+$1,$8,$9,$2,$3,0*%
G04 Aperture macros list end*
%ADD10C,1.600000*%
%ADD11RoundRect,0.249999X1.250001X1.250001X-1.250001X1.250001X-1.250001X-1.250001X1.250001X-1.250001X0*%
%ADD12C,3.000000*%
%ADD13RoundRect,0.250000X0.650000X-0.412500X0.650000X0.412500X-0.650000X0.412500X-0.650000X-0.412500X0*%
%ADD14RoundRect,0.250000X0.625000X-0.400000X0.625000X0.400000X-0.625000X0.400000X-0.625000X-0.400000X0*%
%ADD15C,1.500000*%
%ADD16C,1.400000*%
%ADD17RoundRect,0.250000X-0.400000X-0.625000X0.400000X-0.625000X0.400000X0.625000X-0.400000X0.625000X0*%
%ADD18RoundRect,0.250001X-0.624999X0.462499X-0.624999X-0.462499X0.624999X-0.462499X0.624999X0.462499X0*%
%ADD19R,1.700000X1.700000*%
%ADD20C,1.700000*%
%ADD21RoundRect,0.250000X-0.550000X0.550000X-0.550000X-0.550000X0.550000X-0.550000X0.550000X0.550000X0*%
%ADD22R,1.905000X2.000000*%
%ADD23O,1.905000X2.000000*%
%ADD24RoundRect,0.250000X0.412500X0.650000X-0.412500X0.650000X-0.412500X-0.650000X0.412500X-0.650000X0*%
%ADD25RoundRect,0.250000X-0.650000X0.412500X-0.650000X-0.412500X0.650000X-0.412500X0.650000X0.412500X0*%
%ADD26RoundRect,0.250000X-0.400000X0.525000X-0.400000X-0.525000X0.400000X-0.525000X0.400000X0.525000X0*%
%ADD27RoundRect,0.250000X0.550000X-0.950000X0.550000X0.950000X-0.550000X0.950000X-0.550000X-0.950000X0*%
%ADD28O,1.600000X2.400000*%
%ADD29R,5.400000X2.900000*%
%ADD30RoundRect,0.250000X2.050000X0.300000X-2.050000X0.300000X-2.050000X-0.300000X2.050000X-0.300000X0*%
%ADD31RoundRect,0.250002X4.449998X5.149998X-4.449998X5.149998X-4.449998X-5.149998X4.449998X-5.149998X0*%
%ADD32RoundRect,0.250000X0.500000X-0.850000X0.500000X0.850000X-0.500000X0.850000X-0.500000X-0.850000X0*%
%ADD33C,0.800000*%
%ADD34C,6.400000*%
%ADD35R,2.000000X2.000000*%
%ADD36C,2.000000*%
%ADD37R,0.900000X1.500000*%
%ADD38R,1.500000X0.900000*%
%ADD39C,0.600000*%
%ADD40R,3.800000X3.800000*%
%ADD41RoundRect,0.150000X-0.150000X0.825000X-0.150000X-0.825000X0.150000X-0.825000X0.150000X0.825000X0*%
%ADD42RoundRect,0.250000X-0.412500X-0.650000X0.412500X-0.650000X0.412500X0.650000X-0.412500X0.650000X0*%
%ADD43RoundRect,0.250000X-0.625000X0.400000X-0.625000X-0.400000X0.625000X-0.400000X0.625000X0.400000X0*%
%ADD44RoundRect,0.250000X0.400000X0.625000X-0.400000X0.625000X-0.400000X-0.625000X0.400000X-0.625000X0*%
%ADD45RoundRect,0.249999X-1.250001X1.250001X-1.250001X-1.250001X1.250001X-1.250001X1.250001X1.250001X0*%
G04 APERTURE END LIST*
D10*
%TO.C,FB1*%
X69750000Y-80830000D03*
X69750000Y-70670000D03*
%TD*%
D11*
%TO.C,J5*%
X92500000Y-38072500D03*
D12*
X87500000Y-38072500D03*
X82500000Y-38072500D03*
X77500000Y-38072500D03*
X72500000Y-38072500D03*
X67500000Y-38072500D03*
X62500000Y-38072500D03*
X57500000Y-38072500D03*
X52500000Y-38072500D03*
X47500000Y-38072500D03*
X42500000Y-38072500D03*
X37500000Y-38072500D03*
%TD*%
D13*
%TO.C,C8*%
X109250000Y-49002500D03*
X109250000Y-45877500D03*
%TD*%
D14*
%TO.C,R17*%
X90500000Y-65740000D03*
X90500000Y-62640000D03*
%TD*%
D15*
%TO.C,TP15*%
X59920000Y-96100000D03*
%TD*%
D14*
%TO.C,R8*%
X53500000Y-65740000D03*
X53500000Y-62640000D03*
%TD*%
D12*
%TO.C,J3*%
X29750000Y-106557500D03*
X34750000Y-106557500D03*
X39750000Y-106557500D03*
X44750000Y-106557500D03*
X49750000Y-106557500D03*
X54750000Y-106557500D03*
%TD*%
D15*
%TO.C,TP12*%
X62460000Y-98700000D03*
%TD*%
D16*
%TO.C,R19*%
X89190000Y-27690000D03*
X96810000Y-27690000D03*
%TD*%
D17*
%TO.C,R39*%
X22450000Y-102000000D03*
X25550000Y-102000000D03*
%TD*%
D18*
%TO.C,D3*%
X65000000Y-62702500D03*
X65000000Y-65677500D03*
%TD*%
D19*
%TO.C,J6*%
X70080000Y-103940000D03*
D20*
X70080000Y-106480000D03*
X67540000Y-103940000D03*
X67540000Y-106480000D03*
X65000000Y-103940000D03*
X65000000Y-106480000D03*
X62460000Y-103940000D03*
X62460000Y-106480000D03*
X59920000Y-103940000D03*
X59920000Y-106480000D03*
%TD*%
D16*
%TO.C,R12*%
X61190000Y-27690000D03*
X68810000Y-27690000D03*
%TD*%
D21*
%TO.C,C22*%
X65500000Y-86397621D03*
D10*
X65500000Y-89897621D03*
%TD*%
D14*
%TO.C,R15*%
X67500000Y-65740000D03*
X67500000Y-62640000D03*
%TD*%
D15*
%TO.C,TP18*%
X27290000Y-54750000D03*
%TD*%
D22*
%TO.C,Q2*%
X48460000Y-23690000D03*
D23*
X51000000Y-23690000D03*
X53540000Y-23690000D03*
%TD*%
D24*
%TO.C,C21*%
X46062500Y-82700000D03*
X42937500Y-82700000D03*
%TD*%
D15*
%TO.C,TP2*%
X62460000Y-110250000D03*
%TD*%
D17*
%TO.C,R42*%
X84400000Y-65300000D03*
X87500000Y-65300000D03*
%TD*%
D25*
%TO.C,C7*%
X20750000Y-45877500D03*
X20750000Y-49002500D03*
%TD*%
%TO.C,C17*%
X40700000Y-82437500D03*
X40700000Y-85562500D03*
%TD*%
D16*
%TO.C,R14*%
X75190000Y-27690000D03*
X82810000Y-27690000D03*
%TD*%
D22*
%TO.C,Q5*%
X90460000Y-23690000D03*
D23*
X93000000Y-23690000D03*
X95540000Y-23690000D03*
%TD*%
D26*
%TO.C,SW2*%
X59750000Y-84270000D03*
X59750000Y-92230000D03*
X55250000Y-84270000D03*
X55250000Y-92230000D03*
%TD*%
D15*
%TO.C,TP16*%
X22210000Y-54750000D03*
%TD*%
%TO.C,TP1*%
X59920000Y-110250000D03*
%TD*%
%TO.C,TP6*%
X87260000Y-62700000D03*
%TD*%
D27*
%TO.C,U3*%
X62460000Y-60000000D03*
D28*
X65000000Y-60000000D03*
X67540000Y-60000000D03*
X67540000Y-52380000D03*
X65000000Y-52380000D03*
X62460000Y-52380000D03*
%TD*%
D15*
%TO.C,TP7*%
X84700000Y-62700000D03*
%TD*%
D29*
%TO.C,L1*%
X60500000Y-80600000D03*
X60500000Y-70900000D03*
%TD*%
D14*
%TO.C,R20*%
X95500000Y-65740000D03*
X95500000Y-62640000D03*
%TD*%
D15*
%TO.C,TP10*%
X65000000Y-96100000D03*
%TD*%
D17*
%TO.C,R30*%
X99939493Y-61401645D03*
X103039493Y-61401645D03*
%TD*%
D21*
%TO.C,C20*%
X32250000Y-86397621D03*
D10*
X32250000Y-89897621D03*
%TD*%
D13*
%TO.C,C26*%
X38300000Y-90612500D03*
X38300000Y-87487500D03*
%TD*%
D30*
%TO.C,U7*%
X48275000Y-79150000D03*
X48275000Y-77450000D03*
X48275000Y-75750000D03*
D31*
X39125000Y-75750000D03*
D30*
X48275000Y-74050000D03*
X48275000Y-72350000D03*
%TD*%
D32*
%TO.C,D8*%
X52420000Y-79700000D03*
X52420000Y-76800000D03*
%TD*%
D27*
%TO.C,U5*%
X90460000Y-60000000D03*
D28*
X93000000Y-60000000D03*
X95540000Y-60000000D03*
X95540000Y-52380000D03*
X93000000Y-52380000D03*
X90460000Y-52380000D03*
%TD*%
D12*
%TO.C,J2*%
X107750000Y-37822500D03*
X102750000Y-37822500D03*
%TD*%
D33*
%TO.C,H2*%
X104600000Y-23690000D03*
X105302944Y-21992944D03*
X105302944Y-25387056D03*
X107000000Y-21290000D03*
D34*
X107000000Y-23690000D03*
D33*
X107000000Y-26090000D03*
X108697056Y-21992944D03*
X108697056Y-25387056D03*
X109400000Y-23690000D03*
%TD*%
%TO.C,H3*%
X104600000Y-107690000D03*
X105302944Y-105992944D03*
X105302944Y-109387056D03*
X107000000Y-105290000D03*
D34*
X107000000Y-107690000D03*
D33*
X107000000Y-110090000D03*
X108697056Y-105992944D03*
X108697056Y-109387056D03*
X109400000Y-107690000D03*
%TD*%
D15*
%TO.C,TP13*%
X65000000Y-98700000D03*
%TD*%
D35*
%TO.C,BZ1*%
X26500000Y-67350000D03*
D36*
X26500000Y-59750000D03*
%TD*%
D33*
%TO.C,H1*%
X20600000Y-23690000D03*
X21302944Y-21992944D03*
X21302944Y-25387056D03*
X23000000Y-21290000D03*
D34*
X23000000Y-23690000D03*
D33*
X23000000Y-26090000D03*
X24697056Y-21992944D03*
X24697056Y-25387056D03*
X25400000Y-23690000D03*
%TD*%
D37*
%TO.C,U13*%
X103070000Y-71140000D03*
X101800000Y-71140000D03*
X100530000Y-71140000D03*
X99260000Y-71140000D03*
X97990000Y-71140000D03*
X96720000Y-71140000D03*
X95450000Y-71140000D03*
X94180000Y-71140000D03*
X92910000Y-71140000D03*
X91640000Y-71140000D03*
X90370000Y-71140000D03*
X89100000Y-71140000D03*
X87830000Y-71140000D03*
X86560000Y-71140000D03*
D38*
X85310000Y-74180000D03*
X85310000Y-75450000D03*
X85310000Y-76720000D03*
X85310000Y-77990000D03*
X85310000Y-79260000D03*
X85310000Y-80530000D03*
X85310000Y-81800000D03*
X85310000Y-83070000D03*
X85310000Y-84340000D03*
X85310000Y-85610000D03*
D37*
X86560000Y-88640000D03*
X87830000Y-88640000D03*
X89100000Y-88640000D03*
X90370000Y-88640000D03*
X91640000Y-88640000D03*
X92910000Y-88640000D03*
X94180000Y-88640000D03*
X95450000Y-88640000D03*
X96720000Y-88640000D03*
X97990000Y-88640000D03*
X99260000Y-88640000D03*
X100530000Y-88640000D03*
X101800000Y-88640000D03*
X103070000Y-88640000D03*
D39*
X96050000Y-76990000D03*
X94650000Y-76990000D03*
X96750000Y-77690000D03*
X95350000Y-77690000D03*
X93950000Y-77690000D03*
X96050000Y-78365000D03*
X94650000Y-78365000D03*
D40*
X95350000Y-78390000D03*
D39*
X96750000Y-79090000D03*
X95350000Y-79090000D03*
X93950000Y-79090000D03*
X96050000Y-79790000D03*
X94650000Y-79790000D03*
%TD*%
D18*
%TO.C,D2*%
X51000000Y-62702500D03*
X51000000Y-65677500D03*
%TD*%
D14*
%TO.C,R10*%
X76500000Y-65740000D03*
X76500000Y-62640000D03*
%TD*%
D12*
%TO.C,J1*%
X27250000Y-37822500D03*
X22250000Y-37822500D03*
%TD*%
D41*
%TO.C,U8*%
X107155000Y-44965000D03*
X105885000Y-44965000D03*
X104615000Y-44965000D03*
X103345000Y-44965000D03*
X103345000Y-49915000D03*
X104615000Y-49915000D03*
X105885000Y-49915000D03*
X107155000Y-49915000D03*
%TD*%
D15*
%TO.C,TP4*%
X70080000Y-110250000D03*
%TD*%
D14*
%TO.C,R5*%
X48500000Y-65740000D03*
X48500000Y-62640000D03*
%TD*%
D25*
%TO.C,C32*%
X38300000Y-82437500D03*
X38300000Y-85562500D03*
%TD*%
D26*
%TO.C,SW1*%
X52750000Y-84270000D03*
X52750000Y-92230000D03*
X48250000Y-84270000D03*
X48250000Y-92230000D03*
%TD*%
D41*
%TO.C,U6*%
X26655000Y-44965000D03*
X25385000Y-44965000D03*
X24115000Y-44965000D03*
X22845000Y-44965000D03*
X22845000Y-49915000D03*
X24115000Y-49915000D03*
X25385000Y-49915000D03*
X26655000Y-49915000D03*
%TD*%
D42*
%TO.C,C13*%
X99937500Y-68690000D03*
X103062500Y-68690000D03*
%TD*%
D15*
%TO.C,TP11*%
X59920000Y-98700000D03*
%TD*%
D33*
%TO.C,H4*%
X20600000Y-107690000D03*
X21302944Y-105992944D03*
X21302944Y-109387056D03*
X23000000Y-105290000D03*
D34*
X23000000Y-107690000D03*
D33*
X23000000Y-110090000D03*
X24697056Y-105992944D03*
X24697056Y-109387056D03*
X25400000Y-107690000D03*
%TD*%
D18*
%TO.C,D5*%
X93000000Y-62702500D03*
X93000000Y-65677500D03*
%TD*%
D22*
%TO.C,Q4*%
X76460000Y-23690000D03*
D23*
X79000000Y-23690000D03*
X81540000Y-23690000D03*
%TD*%
D22*
%TO.C,Q3*%
X62460000Y-23690000D03*
D23*
X65000000Y-23690000D03*
X67540000Y-23690000D03*
%TD*%
D16*
%TO.C,R7*%
X47190000Y-27690000D03*
X54810000Y-27690000D03*
%TD*%
D22*
%TO.C,Q1*%
X34460000Y-23690000D03*
D23*
X37000000Y-23690000D03*
X39540000Y-23690000D03*
%TD*%
D15*
%TO.C,TP14*%
X67540000Y-98700000D03*
%TD*%
D10*
%TO.C,FB2*%
X25750000Y-82500000D03*
X25750000Y-92660000D03*
%TD*%
D15*
%TO.C,TP5*%
X67540000Y-110250000D03*
%TD*%
D43*
%TO.C,R28*%
X52420000Y-70950000D03*
X52420000Y-74050000D03*
%TD*%
D18*
%TO.C,D4*%
X79000000Y-62702500D03*
X79000000Y-65677500D03*
%TD*%
D27*
%TO.C,U4*%
X76460000Y-60000000D03*
D28*
X79000000Y-60000000D03*
X81540000Y-60000000D03*
X81540000Y-52380000D03*
X79000000Y-52380000D03*
X76460000Y-52380000D03*
%TD*%
D16*
%TO.C,R3*%
X33130000Y-27690000D03*
X40750000Y-27690000D03*
%TD*%
D43*
%TO.C,R4*%
X39500000Y-62640000D03*
X39500000Y-65740000D03*
%TD*%
D12*
%TO.C,J4*%
X75250000Y-106557500D03*
X80250000Y-106557500D03*
X85250000Y-106557500D03*
X90250000Y-106557500D03*
X95250000Y-106557500D03*
X100250000Y-106557500D03*
%TD*%
D14*
%TO.C,R16*%
X81500000Y-65740000D03*
X81500000Y-62640000D03*
%TD*%
D27*
%TO.C,U2*%
X48460000Y-60000000D03*
D28*
X51000000Y-60000000D03*
X53540000Y-60000000D03*
X53540000Y-52380000D03*
X51000000Y-52380000D03*
X48460000Y-52380000D03*
%TD*%
D44*
%TO.C,R29*%
X103039493Y-63813504D03*
X99939493Y-63813504D03*
%TD*%
D18*
%TO.C,D1*%
X37000000Y-62702500D03*
X37000000Y-65677500D03*
%TD*%
D15*
%TO.C,TP3*%
X65000000Y-110250000D03*
%TD*%
D42*
%TO.C,C28*%
X24937500Y-99500000D03*
X28062500Y-99500000D03*
%TD*%
D27*
%TO.C,U1*%
X34460000Y-60000000D03*
D28*
X37000000Y-60000000D03*
X39540000Y-60000000D03*
X39540000Y-52380000D03*
X37000000Y-52380000D03*
X34460000Y-52380000D03*
%TD*%
D15*
%TO.C,TP17*%
X24750000Y-54750000D03*
%TD*%
D14*
%TO.C,R1*%
X34500000Y-65740000D03*
X34500000Y-62640000D03*
%TD*%
D10*
%TO.C,FB3*%
X25748367Y-96145859D03*
X28288367Y-96145859D03*
%TD*%
D42*
%TO.C,C25*%
X99926993Y-66250000D03*
X103051993Y-66250000D03*
%TD*%
D14*
%TO.C,R9*%
X62500000Y-65740000D03*
X62500000Y-62640000D03*
%TD*%
D15*
%TO.C,TP8*%
X67540000Y-96100000D03*
%TD*%
%TO.C,TP9*%
X62460000Y-96100000D03*
%TD*%
D45*
%TO.C,J7*%
X28265000Y-73250000D03*
D12*
X28265000Y-78250000D03*
%TD*%
M02*
