%TF.GenerationSoftware,KiCad,Pcbnew,9.0.6-9.0.6~ubuntu24.04.1*%
%TF.CreationDate,2026-05-19T20:08:16+02:00*%
%TF.ProjectId,preheater,70726568-6561-4746-9572-2e6b69636164,0.1*%
%TF.SameCoordinates,Original*%
%TF.FileFunction,Paste,Top*%
%TF.FilePolarity,Positive*%
%FSLAX46Y46*%
G04 Gerber Fmt 4.6, Leading zero omitted, Abs format (unit mm)*
G04 Created by KiCad (PCBNEW 9.0.6-9.0.6~ubuntu24.04.1) date 2026-05-19 20:08:16*
%MOMM*%
%LPD*%
G01*
G04 APERTURE LIST*
G04 Aperture macros list*
%AMRoundRect*
0 Rectangle with rounded corners*
0 $1 Rounding radius*
0 $2 $3 $4 $5 $6 $7 $8 $9 X,Y pos of 4 corners*
0 Add a 4 corners polygon primitive as box body*
4,1,4,$2,$3,$4,$5,$6,$7,$8,$9,$2,$3,0*
0 Add four circle primitives for the rounded corners*
1,1,$1+$1,$2,$3*
1,1,$1+$1,$4,$5*
1,1,$1+$1,$6,$7*
1,1,$1+$1,$8,$9*
0 Add four rect primitives between the rounded corners*
20,1,$1+$1,$2,$3,$4,$5,0*
20,1,$1+$1,$4,$5,$6,$7,0*
20,1,$1+$1,$6,$7,$8,$9,0*
20,1,$1+$1,$8,$9,$2,$3,0*%
G04 Aperture macros list end*
%ADD10RoundRect,0.250000X0.650000X-0.412500X0.650000X0.412500X-0.650000X0.412500X-0.650000X-0.412500X0*%
%ADD11RoundRect,0.250000X0.625000X-0.400000X0.625000X0.400000X-0.625000X0.400000X-0.625000X-0.400000X0*%
%ADD12RoundRect,0.250000X-0.400000X-0.625000X0.400000X-0.625000X0.400000X0.625000X-0.400000X0.625000X0*%
%ADD13RoundRect,0.250001X-0.624999X0.462499X-0.624999X-0.462499X0.624999X-0.462499X0.624999X0.462499X0*%
%ADD14RoundRect,0.250000X0.412500X0.650000X-0.412500X0.650000X-0.412500X-0.650000X0.412500X-0.650000X0*%
%ADD15RoundRect,0.250000X-0.650000X0.412500X-0.650000X-0.412500X0.650000X-0.412500X0.650000X0.412500X0*%
%ADD16RoundRect,0.250000X-0.400000X0.525000X-0.400000X-0.525000X0.400000X-0.525000X0.400000X0.525000X0*%
%ADD17R,5.400000X2.900000*%
%ADD18RoundRect,0.250000X2.025000X2.375000X-2.025000X2.375000X-2.025000X-2.375000X2.025000X-2.375000X0*%
%ADD19RoundRect,0.250000X2.050000X0.300000X-2.050000X0.300000X-2.050000X-0.300000X2.050000X-0.300000X0*%
%ADD20RoundRect,0.250000X0.500000X-0.850000X0.500000X0.850000X-0.500000X0.850000X-0.500000X-0.850000X0*%
%ADD21R,0.900000X1.500000*%
%ADD22R,1.500000X0.900000*%
%ADD23R,0.900000X0.900000*%
%ADD24RoundRect,0.150000X-0.150000X0.825000X-0.150000X-0.825000X0.150000X-0.825000X0.150000X0.825000X0*%
%ADD25RoundRect,0.250000X-0.412500X-0.650000X0.412500X-0.650000X0.412500X0.650000X-0.412500X0.650000X0*%
%ADD26RoundRect,0.250000X-0.625000X0.400000X-0.625000X-0.400000X0.625000X-0.400000X0.625000X0.400000X0*%
%ADD27RoundRect,0.250000X0.400000X0.625000X-0.400000X0.625000X-0.400000X-0.625000X0.400000X-0.625000X0*%
G04 APERTURE END LIST*
D10*
%TO.C,C8*%
X109250000Y-49002500D03*
X109250000Y-45877500D03*
%TD*%
D11*
%TO.C,R17*%
X90500000Y-65740000D03*
X90500000Y-62640000D03*
%TD*%
%TO.C,R8*%
X53500000Y-65740000D03*
X53500000Y-62640000D03*
%TD*%
D12*
%TO.C,R39*%
X22450000Y-102000000D03*
X25550000Y-102000000D03*
%TD*%
D13*
%TO.C,D3*%
X65000000Y-62702500D03*
X65000000Y-65677500D03*
%TD*%
D11*
%TO.C,R15*%
X67500000Y-65740000D03*
X67500000Y-62640000D03*
%TD*%
D14*
%TO.C,C21*%
X46062500Y-82700000D03*
X42937500Y-82700000D03*
%TD*%
D12*
%TO.C,R42*%
X84400000Y-65300000D03*
X87500000Y-65300000D03*
%TD*%
D15*
%TO.C,C7*%
X20750000Y-45877500D03*
X20750000Y-49002500D03*
%TD*%
%TO.C,C17*%
X40700000Y-82437500D03*
X40700000Y-85562500D03*
%TD*%
D16*
%TO.C,SW2*%
X59750000Y-84270000D03*
X59750000Y-92230000D03*
X55250000Y-84270000D03*
X55250000Y-92230000D03*
%TD*%
D17*
%TO.C,L1*%
X60500000Y-80600000D03*
X60500000Y-70900000D03*
%TD*%
D11*
%TO.C,R20*%
X95500000Y-65740000D03*
X95500000Y-62640000D03*
%TD*%
D12*
%TO.C,R30*%
X99939493Y-61401645D03*
X103039493Y-61401645D03*
%TD*%
D10*
%TO.C,C26*%
X38300000Y-90612500D03*
X38300000Y-87487500D03*
%TD*%
D18*
%TO.C,U7*%
X41550000Y-78525000D03*
X41550000Y-72975000D03*
X36700000Y-78525000D03*
X36700000Y-72975000D03*
D19*
X48275000Y-79150000D03*
X48275000Y-77450000D03*
X48275000Y-75750000D03*
X48275000Y-74050000D03*
X48275000Y-72350000D03*
%TD*%
D20*
%TO.C,D8*%
X52420000Y-79700000D03*
X52420000Y-76800000D03*
%TD*%
D21*
%TO.C,U13*%
X103070000Y-71140000D03*
X101800000Y-71140000D03*
X100530000Y-71140000D03*
X99260000Y-71140000D03*
X97990000Y-71140000D03*
X96720000Y-71140000D03*
X95450000Y-71140000D03*
X94180000Y-71140000D03*
X92910000Y-71140000D03*
X91640000Y-71140000D03*
X90370000Y-71140000D03*
X89100000Y-71140000D03*
X87830000Y-71140000D03*
X86560000Y-71140000D03*
D22*
X85310000Y-74180000D03*
X85310000Y-75450000D03*
X85310000Y-76720000D03*
X85310000Y-77990000D03*
X85310000Y-79260000D03*
X85310000Y-80530000D03*
X85310000Y-81800000D03*
X85310000Y-83070000D03*
X85310000Y-84340000D03*
X85310000Y-85610000D03*
D21*
X86560000Y-88640000D03*
X87830000Y-88640000D03*
X89100000Y-88640000D03*
X90370000Y-88640000D03*
X91640000Y-88640000D03*
X92910000Y-88640000D03*
X94180000Y-88640000D03*
X95450000Y-88640000D03*
X96720000Y-88640000D03*
X97990000Y-88640000D03*
X99260000Y-88640000D03*
X100530000Y-88640000D03*
X101800000Y-88640000D03*
X103070000Y-88640000D03*
D23*
X96750000Y-76990000D03*
X95350000Y-76990000D03*
X93950000Y-76990000D03*
X96750000Y-78390000D03*
X95350000Y-78390000D03*
X93950000Y-78390000D03*
X96750000Y-79790000D03*
X95350000Y-79790000D03*
X93950000Y-79790000D03*
%TD*%
D13*
%TO.C,D2*%
X51000000Y-62702500D03*
X51000000Y-65677500D03*
%TD*%
D11*
%TO.C,R10*%
X76500000Y-65740000D03*
X76500000Y-62640000D03*
%TD*%
D24*
%TO.C,U8*%
X107155000Y-44965000D03*
X105885000Y-44965000D03*
X104615000Y-44965000D03*
X103345000Y-44965000D03*
X103345000Y-49915000D03*
X104615000Y-49915000D03*
X105885000Y-49915000D03*
X107155000Y-49915000D03*
%TD*%
D11*
%TO.C,R5*%
X48500000Y-65740000D03*
X48500000Y-62640000D03*
%TD*%
D15*
%TO.C,C32*%
X38300000Y-82437500D03*
X38300000Y-85562500D03*
%TD*%
D16*
%TO.C,SW1*%
X52750000Y-84270000D03*
X52750000Y-92230000D03*
X48250000Y-84270000D03*
X48250000Y-92230000D03*
%TD*%
D24*
%TO.C,U6*%
X26655000Y-44965000D03*
X25385000Y-44965000D03*
X24115000Y-44965000D03*
X22845000Y-44965000D03*
X22845000Y-49915000D03*
X24115000Y-49915000D03*
X25385000Y-49915000D03*
X26655000Y-49915000D03*
%TD*%
D25*
%TO.C,C13*%
X99937500Y-68690000D03*
X103062500Y-68690000D03*
%TD*%
D13*
%TO.C,D5*%
X93000000Y-62702500D03*
X93000000Y-65677500D03*
%TD*%
D26*
%TO.C,R28*%
X52420000Y-70950000D03*
X52420000Y-74050000D03*
%TD*%
D13*
%TO.C,D4*%
X79000000Y-62702500D03*
X79000000Y-65677500D03*
%TD*%
D26*
%TO.C,R4*%
X39500000Y-62640000D03*
X39500000Y-65740000D03*
%TD*%
D11*
%TO.C,R16*%
X81500000Y-65740000D03*
X81500000Y-62640000D03*
%TD*%
D27*
%TO.C,R29*%
X103039493Y-63813504D03*
X99939493Y-63813504D03*
%TD*%
D13*
%TO.C,D1*%
X37000000Y-62702500D03*
X37000000Y-65677500D03*
%TD*%
D25*
%TO.C,C28*%
X24937500Y-99500000D03*
X28062500Y-99500000D03*
%TD*%
D11*
%TO.C,R1*%
X34500000Y-65740000D03*
X34500000Y-62640000D03*
%TD*%
D25*
%TO.C,C25*%
X99926993Y-66250000D03*
X103051993Y-66250000D03*
%TD*%
D11*
%TO.C,R9*%
X62500000Y-65740000D03*
X62500000Y-62640000D03*
%TD*%
M02*
